<?xml version="1.0" standalone="no"?>
<!DOCTYPE svg PUBLIC "-//W3C//DTD SVG 20010904//EN"
 "http://www.w3.org/TR/2001/REC-SVG-20010904/DTD/svg10.dtd">
<svg version="1.0" xmlns="http://www.w3.org/2000/svg"
 width="640.000000pt" height="384.000000pt" viewBox="0 0 640.000000 384.000000"
 preserveAspectRatio="xMidYMid meet">

<g transform="translate(0.000000,384.000000) scale(0.100000,-0.100000)"
fill="#000000" stroke="none">
<path d="M1388 3263 c-20 -5 -24 -28 -8 -38 6 -3 10 -17 10 -30 0 -16 -8 -26
-27 -33 -45 -16 -3 -13 157 13 80 12 128 23 107 24 -23 1 -65 15 -104 36 -62
33 -93 39 -135 28z"/>
<path d="M2634 3224 c-5 -2 -119 -5 -254 -8 -248 -5 -474 -22 -675 -51 -60 -9
-166 -18 -235 -21 -178 -8 -210 -10 -350 -27 -69 -9 -163 -19 -210 -22 -47 -3
-111 -11 -142 -17 -54 -10 -58 -13 -58 -38 0 -15 13 -45 30 -68 50 -69 49 -82
-12 -132 -67 -57 -338 -302 -338 -307 0 -33 112 -149 152 -157 48 -11 181 -26
186 -21 4 4 -5 33 -52 160 -6 14 -5 16 2 6 7 -10 20 0 53 45 24 33 48 62 54
67 5 4 87 6 180 5 94 -1 204 -1 245 0 190 5 1676 -127 2410 -214 139 -17 282
-27 375 -28 167 -1 305 6 305 15 0 4 28 10 63 13 34 4 102 21 152 38 61 21 94
27 105 21 8 -5 32 -19 53 -32 20 -12 37 -20 37 -17 0 3 -21 17 -47 32 l-46 28
44 19 c24 10 69 23 99 29 172 33 167 44 -32 62 l-145 13 -219 113 c-120 62
-237 123 -259 135 -140 77 -384 199 -465 233 -165 70 -265 90 -485 96 -49 1
-155 8 -235 14 -159 13 -273 19 -286 16z m1435 -589 c40 -3 81 -10 90 -16 11
-7 -10 -8 -74 -4 -108 7 -145 14 -145 26 0 4 12 7 28 4 15 -2 60 -7 101 -10z
m-3444 -137 c7 -7 -15 -9 -69 -5 -103 7 -119 23 -18 19 42 -2 82 -9 87 -14z"/>
<path d="M1308 3143 c7 -3 16 -2 19 1 4 3 -2 6 -13 5 -11 0 -14 -3 -6 -6z"/>
<path d="M1331 2474 c0 -11 3 -14 6 -6 3 7 2 16 -1 19 -3 4 -6 -2 -5 -13z"/>
<path d="M1625 2456 c22 -8 65 -16 95 -19 l55 -4 -35 15 c-19 8 -62 17 -95 19
l-60 3 40 -14z"/>
<path d="M1328 2403 c5 -59 10 -63 11 -10 1 26 -3 47 -7 47 -4 0 -6 -17 -4
-37z"/>
<path d="M1480 2415 c18 -22 88 -41 101 -28 7 7 -3 13 -35 17 -25 4 -48 11
-51 17 -4 5 -11 9 -17 9 -7 0 -6 -6 2 -15z"/>
<path d="M1720 2379 c0 -5 5 -7 10 -4 6 3 10 8 10 11 0 2 -4 4 -10 4 -5 0 -10
-5 -10 -11z"/>
<path d="M4302 2350 c0 -19 2 -27 5 -17 2 9 2 25 0 35 -3 9 -5 1 -5 -18z"/>
<path d="M5480 2350 c0 -4 6 -10 13 -13 8 -3 4 -13 -14 -33 -56 -64 -57 -61
20 -74 70 -12 70 -11 105 16 40 32 46 32 208 8 124 -18 118 -18 118 10 0 22
-22 51 -31 41 -4 -4 -138 13 -386 49 -18 3 -33 1 -33 -4z m220 -55 c69 -11 74
-13 25 -9 -153 11 -189 13 -172 8 18 -6 18 -6 0 -27 -17 -20 -17 -20 0 -14 13
5 17 3 14 -5 -4 -13 -48 -12 -57 1 -3 4 -15 6 -28 5 -24 -1 -25 -4 18 49 16
20 27 20 200 -8z m133 -22 c-7 -2 -21 -2 -30 0 -10 3 -4 5 12 5 17 0 24 -2 18
-5z"/>
<path d="M2248 2343 c7 -3 16 -2 19 1 4 3 -2 6 -13 5 -11 0 -14 -3 -6 -6z"/>
<path d="M1342 2325 c0 -11 4 -31 8 -45 6 -20 8 -21 8 -5 0 11 -4 31 -8 45 -6
20 -8 21 -8 5z"/>
<path d="M3065 2332 c-26 -6 55 -32 102 -32 17 0 44 -5 59 -10 15 -6 29 -9 31
-6 5 4 -107 42 -147 49 -14 2 -34 2 -45 -1z"/>
<path d="M2791 2288 c1 -13 5 -36 9 -53 7 -27 8 -25 9 17 0 26 -3 50 -9 53 -6
3 -9 -4 -9 -17z"/>
<path d="M4313 2270 c0 -25 2 -35 4 -22 2 12 2 32 0 45 -2 12 -4 2 -4 -23z"/>
<path d="M3035 2280 c3 -5 8 -10 11 -10 2 0 4 5 4 10 0 6 -5 10 -11 10 -5 0
-7 -4 -4 -10z"/>
<path d="M2985 2260 c20 -8 92 -14 84 -6 -2 2 -26 6 -54 10 -33 3 -43 2 -30
-4z"/>
<path d="M1361 2234 c0 -11 3 -14 6 -6 3 7 2 16 -1 19 -3 4 -6 -2 -5 -13z"/>
<path d="M3203 2243 c9 -2 25 -2 35 0 9 3 1 5 -18 5 -19 0 -27 -2 -17 -5z"/>
<path d="M1371 2194 c0 -11 3 -14 6 -6 3 7 2 16 -1 19 -3 4 -6 -2 -5 -13z"/>
<path d="M4322 1950 c-1 -244 -18 -461 -39 -516 -5 -15 -17 -16 -97 -10 -50 3
-371 9 -713 12 l-623 7 0 24 0 24 644 -7 c595 -7 647 -6 670 10 72 47 70 47
-906 62 l-397 6 -4 47 -3 46 -2 -48 -2 -49 -122 6 c-68 3 -222 8 -343 11 -203
5 -218 4 -200 -11 61 -48 95 -57 265 -65 91 -4 216 -8 278 -8 112 -1 113 -1
110 -23 -3 -21 -8 -23 -65 -23 -35 1 -229 2 -432 3 l-369 2 -22 90 c-62 250
-209 414 -439 486 l-89 29 -18 57 c-9 32 -19 56 -22 54 -2 -3 3 -26 12 -52 9
-26 16 -50 16 -53 0 -3 -66 -6 -148 -6 -161 -1 -229 -13 -337 -64 -121 -56
-227 -185 -276 -333 l-22 -68 -41 6 c-70 9 -140 26 -168 40 -15 8 -31 14 -37
14 -27 0 38 -120 90 -166 59 -52 173 -101 250 -108 28 -3 54 -8 57 -11 3 -3
14 -47 24 -97 24 -117 57 -184 123 -257 70 -75 157 -117 273 -130 83 -9 196
-1 262 19 62 18 343 79 415 90 134 20 928 30 1525 20 898 -16 970 -22 1445
-126 39 -9 109 -16 157 -16 79 0 103 6 237 51 185 63 326 123 357 152 50 47
21 89 -84 123 l-53 18 6 36 c12 71 16 83 28 79 7 -2 13 -17 15 -33 6 -66 14
-94 26 -94 16 0 26 31 26 82 0 42 -7 39 125 58 100 15 197 45 254 78 43 25 43
25 37 71 -3 25 -2 72 3 103 6 31 13 111 17 177 6 109 5 121 -11 127 -9 4 -20
2 -24 -4 -3 -6 -45 -14 -93 -18 l-86 -7 -6 54 c-3 30 -7 72 -9 94 l-2 40 -15
-25 c-12 -19 -16 -66 -17 -205 -2 -99 -4 -188 -7 -198 -2 -9 -1 -15 4 -12 4 3
14 44 21 91 7 47 18 92 26 99 7 8 13 21 13 29 0 9 8 16 20 16 13 0 20 -7 20
-20 0 -17 7 -20 38 -20 20 1 56 5 80 9 41 8 42 8 42 -18 0 -14 -32 -88 -71
-163 -75 -147 -70 -144 -146 -129 -35 7 -42 5 -46 -9 -3 -13 -12 -16 -36 -12
-30 4 -31 6 -31 51 0 25 -7 75 -16 111 -46 198 -186 337 -404 400 -116 34
-317 39 -434 11 -246 -59 -384 -212 -451 -501 -35 -147 -33 -140 -45 -140 -13
0 -12 25 5 145 21 137 28 364 17 520 -8 124 -9 117 -10 -135z m-2919 -308 c68
-30 104 -70 111 -122 l5 -45 -12 42 c-16 56 -28 65 -16 12 13 -56 3 -63 -11
-8 -6 24 -13 52 -16 61 -6 20 -92 62 -146 72 l-38 7 0 -87 c0 -48 -2 -85 -4
-83 -2 2 -6 44 -9 93 l-6 89 49 -6 c28 -3 69 -15 93 -25z m-170 -16 l-16 -34
-59 6 c-57 5 -61 4 -95 -29 -45 -43 -87 -109 -76 -119 4 -5 37 -16 73 -25 126
-32 142 -36 137 -41 -6 -6 -209 47 -221 57 -24 21 92 179 131 179 7 0 13 4 13
9 0 10 62 28 102 30 l28 1 -17 -34z m3733 18 c-3 -9 -6 -20 -6 -25 0 -5 -17
-10 -37 -10 l-38 -1 30 -8 c22 -6 13 -8 -37 -7 -62 1 -70 -1 -98 -28 -34 -32
-86 -113 -78 -121 3 -2 57 -18 119 -35 63 -17 116 -33 119 -36 9 -10 -72 7
-163 34 -84 25 -88 28 -82 51 10 42 63 110 110 142 24 16 48 30 53 30 5 0 23
7 38 15 40 20 78 20 70 -1z m134 1 c55 -19 114 -63 150 -111 37 -49 39 -74 5
-74 -19 0 -25 5 -26 23 -1 21 -1 21 -8 -3 -7 -21 -10 -17 -21 35 -17 71 -31
86 -104 114 -97 36 -95 38 -98 -91 l-3 -113 -5 118 -5 117 36 0 c20 0 56 -7
79 -15z m-3561 -140 l0 -20 -9 20 c-5 11 -9 27 -9 35 -1 13 0 13 9 0 5 -8 9
-24 9 -35z m21 -20 c0 -8 -4 -15 -10 -15 -5 0 -7 7 -4 15 4 8 8 15 10 15 2 0
4 -7 4 -15z m-273 -52 c-3 -10 -5 -4 -5 12 0 17 2 24 5 18 2 -7 2 -21 0 -30z
m179 -29 c-65 -25 -123 -43 -128 -42 -12 4 202 86 227 86 11 1 -34 -19 -99
-44z m3840 10 c14 -75 -6 -197 -37 -224 -3 -3 -8 -12 -11 -20 -3 -8 -21 -24
-39 -34 -32 -19 -33 -19 -19 -1 14 17 13 18 -5 12 -16 -6 -15 -3 5 13 14 11
30 20 35 19 6 0 1 -6 -9 -14 -11 -8 -15 -15 -9 -15 6 0 16 7 23 15 7 8 9 15 4
15 -4 0 1 7 12 15 10 8 14 15 7 15 -6 0 -14 -4 -17 -9 -6 -9 -66 -33 -66 -27
0 2 22 17 49 34 39 24 52 39 60 69 12 41 14 112 5 136 -6 16 2 18 -184 -41
-36 -12 -57 -15 -48 -8 11 8 15 20 11 34 -4 17 -1 22 13 22 11 0 27 -7 37 -15
16 -11 26 -11 73 5 29 10 62 23 71 29 28 16 32 14 39 -25z m-3719 -16 c-3 -7
-5 -2 -5 12 0 14 2 19 5 13 2 -7 2 -19 0 -25z m-599 -3 c-3 -3 -9 2 -12 12 -6
14 -5 15 5 6 7 -7 10 -15 7 -18z m3732 -18 c0 -7 -4 -6 -10 3 -8 12 -10 12
-10 1 0 -8 -3 -12 -6 -8 -9 9 6 28 17 22 5 -4 9 -12 9 -18z m-3713 -47 c-11
-27 -22 -48 -24 -46 -3 2 3 21 11 41 19 45 20 59 4 49 -7 -4 -8 -3 -4 4 4 6
13 9 20 6 11 -4 10 -15 -7 -54z m280 34 c-3 -3 -12 -4 -19 -1 -8 3 -5 6 6 6
11 1 17 -2 13 -5z m3429 -51 c-14 -26 -25 -45 -26 -42 0 13 42 101 47 96 2 -3
-7 -27 -21 -54z m-3516 -68 c-44 -67 -67 -90 -33 -32 37 61 68 106 72 102 2
-3 -15 -34 -39 -70z m170 -13 c0 -6 6 -17 13 -24 7 -7 27 -33 46 -58 l33 -45
-37 40 c-45 48 -125 151 -125 160 0 3 16 -9 35 -28 19 -19 35 -39 35 -45z
m3557 26 c-37 -64 -116 -168 -126 -168 -6 0 -13 4 -16 10 -3 5 0 7 8 4 9 -3
37 30 83 100 68 104 100 136 51 54z m206 -106 c47 -60 49 -64 31 -77 -25 -19
-84 -39 -91 -31 -4 3 -1 6 6 6 21 0 81 31 81 42 0 5 -34 52 -75 105 -41 52
-75 99 -75 105 0 5 16 -12 36 -39 21 -26 59 -76 87 -111z m-3563 83 c-7 -8
-18 -15 -24 -15 -6 0 -3 5 7 11 9 5 17 18 18 27 0 11 2 12 6 4 3 -7 -1 -19 -7
-27z m3610 -15 c0 -11 -2 -20 -4 -20 -2 0 -6 9 -9 20 -3 11 -1 20 4 20 5 0 9
-9 9 -20z m-3670 -20 c-14 -11 -29 -20 -35 -20 -5 0 4 9 20 20 38 25 48 25 15
0z m3204 4 c3 -8 2 -12 -4 -9 -6 3 -10 10 -10 16 0 14 7 11 14 -7z m-3580 -59
c-9 -14 -18 -25 -21 -25 -5 0 5 18 20 38 17 22 18 13 1 -13z m217 -66 c-20 -8
-23 -6 -15 14 4 13 9 14 19 4 11 -10 10 -13 -4 -18z m3584 -11 l40 -41 -47 38
c-27 22 -48 41 -48 42 0 12 22 -3 55 -39z m-3698 2 c18 -16 31 -30 27 -30 -3
0 -22 14 -41 30 -18 17 -31 30 -27 30 3 0 22 -13 41 -30z m3816 -37 c-7 -2
-19 -2 -25 0 -7 3 -2 5 12 5 14 0 19 -2 13 -5z"/>
<path d="M1198 1633 c7 -3 16 -2 19 1 4 3 -2 6 -13 5 -11 0 -14 -3 -6 -6z"/>
<path d="M1153 1613 c9 -2 25 -2 35 0 9 3 1 5 -18 5 -19 0 -27 -2 -17 -5z"/>
<path d="M2823 2030 c0 -30 2 -43 4 -27 2 15 2 39 0 55 -2 15 -4 2 -4 -28z"/>
<path d="M491 2035 c-1 -29 -3 -30 -41 -27 -53 5 -55 -20 -2 -36 l37 -11 -42
4 c-36 4 -43 2 -49 -17 -4 -15 -1 -25 12 -35 16 -12 16 -13 1 -13 -9 0 -17 -7
-17 -15 0 -10 10 -14 36 -12 l37 2 21 -85 21 -85 3 75 c1 41 -2 122 -6 180 -5
58 -10 91 -11 75z"/>
<path d="M2831 1860 c0 -63 4 -133 8 -155 4 -23 6 23 3 105 -4 178 -10 205
-11 50z"/>
<path d="M5805 1830 c3 -5 8 -10 11 -10 2 0 4 5 4 10 0 6 -5 10 -11 10 -5 0
-7 -4 -4 -10z"/>
<path d="M400 1682 c0 -18 5 -32 10 -32 6 0 8 11 4 28 -10 39 -14 40 -14 4z"/>
<path d="M4070 1700 c0 -5 7 -10 15 -10 8 0 15 5 15 10 0 6 -7 10 -15 10 -8 0
-15 -4 -15 -10z"/>
</g>
</svg>
